inDegrees=no
num_controls=7
num_derivatives=13
num_iterations=69
num_multipliers=7
num_parameters=0
num_slacks=7
num_states=26
objective=0.448715
objective_accelerations=0.018118
objective_balance=0.006884
objective_effort=0.019858
objective_height=0.401929
objective_ligament=0.001925
solver_duration=895.222266
status=Solve_Succeeded
success=true
DataType=double
version=3
OpenSimVersion=4.5
endheader
time	/jointset/ground_pelvis/pelvis_tilt/value	/jointset/ground_pelvis/pelvis_tx/value	/jointset/ground_pelvis/pelvis_ty/value	/jointset/hip_l/hip_flexion_l/value	/jointset/hip_l/hip_adduction_l/value	/jointset/hip_l/hip_rotation_l/value	/jointset/back/lumbar_extension/value	/jointset/patellofemoral_l/patellar_flexion_l/value	/jointset/knee_l/knee_flexion_l/value	/jointset/knee_l/knee_adduction_l/value	/jointset/knee_l/knee_rotation_l/value	/jointset/ankle_l/ankle_angle_l/value	/jointset/subtalar_l/subtalar_angle_l/value	/jointset/ground_pelvis/pelvis_tilt/speed	/jointset/ground_pelvis/pelvis_tx/speed	/jointset/ground_pelvis/pelvis_ty/speed	/jointset/hip_l/hip_flexion_l/speed	/jointset/hip_l/hip_adduction_l/speed	/jointset/hip_l/hip_rotation_l/speed	/jointset/back/lumbar_extension/speed	/jointset/patellofemoral_l/patellar_flexion_l/speed	/jointset/knee_l/knee_flexion_l/speed	/jointset/knee_l/knee_adduction_l/speed	/jointset/knee_l/knee_rotation_l/speed	/jointset/ankle_l/ankle_angle_l/speed	/jointset/subtalar_l/subtalar_angle_l/speed	/forceset/tau_hip_flexion_l	/forceset/tau_hip_adduction_l	/forceset/tau_hip_rotation_l	/forceset/tau_knee_flexion_l	/forceset/tau_ankle_angle_l	/forceset/tau_subtalar_angle_l	/forceset/tau_lumbar_extension	lambda_cid13_p0	lambda_cid13_p1	lambda_cid13_p2	lambda_cid13_p3	lambda_cid13_p4	lambda_cid13_p5	lambda_cid14_p0	/jointset/ground_pelvis/pelvis_tilt/accel	/jointset/ground_pelvis/pelvis_tx/accel	/jointset/ground_pelvis/pelvis_ty/accel	/jointset/hip_l/hip_flexion_l/accel	/jointset/hip_l/hip_adduction_l/accel	/jointset/hip_l/hip_rotation_l/accel	/jointset/back/lumbar_extension/accel	/jointset/patellofemoral_l/patellar_flexion_l/accel	/jointset/knee_l/knee_flexion_l/accel	/jointset/knee_l/knee_adduction_l/accel	/jointset/knee_l/knee_rotation_l/accel	/jointset/ankle_l/ankle_angle_l/accel	/jointset/subtalar_l/subtalar_angle_l/accel	gamma_cid13_p0	gamma_cid13_p1	gamma_cid13_p2	gamma_cid13_p3	gamma_cid13_p4	gamma_cid13_p5	gamma_cid14_p0
0.5	-0.2828117300518897	-0.0007965405338776031	0.8506371039415938	0.7714057952787107	-0.2937095077727307	-0.1622949381011243	-0.2845411272365208	0.3479629631958541	0.3479629631958505	-0.1744303253654984	0.1741274461676853	0.01073537932476675	-0.0344299455411636	-0.3264823876899908	-0.1504474125201894	-0.1617866797359544	1.075199477983989	-0.0680823905094648	0.2987218302833681	-0.6466974514953796	0.8650592095678322	0.8650592095677704	-0.001703039502659659	0.003573038539212973	0.1501030509124823	-0.04546156604651422	-0.1543680603027139	0.06060084316565305	-0.01788001578487725	-0.1464832892056322	0.09982491693134629	-0.004881908854659675	0.1625737248878792	-9.219880747995859	-1.736706573739954	6.123947399125858	3.697228106693508	-622.8900606033494	-32.54483569728715	-41.15164473749441	0.2417387491011909	0.2534860959435384	-0.04964832697313497	-0.7884345025881423	0.2045929258743288	-0.1340651417551336	1.139089904792962	-0.5556510357582479	-0.5556510357582345	0.02133759666299426	-0.0551761717344172	0.04263930539737443	0.2012509649247975	-1.099954622472984e-09	-1.983055155153127e-07	6.460824588362213e-08	-1.548179318070484e-08	-4.111423583380906e-08	-6.480224454537087e-08	-2.492908492591171e-08
0.51	-0.2860639507783075	-0.002288087674161058	0.8490170745056467	0.7821166030319761	-0.2943802239816973	-0.1593152433073443	-0.2909502740439517	0.3565844946530313	0.3565844946530363	-0.1744465683614314	0.1741608558622658	0.01223829809058118	-0.03487464556565113	-0.3239153882462187	-0.1478375378782564	-0.1621870386101181	1.066805820516509	-0.06605127864492991	0.297172205706363	-0.6350362117691779	0.8591321251800154	0.8591321251799984	-0.001533247748554593	0.003110934388334753	0.1504704985194591	-0.04346851707956646	-0.15939541770296	0.0619973256894935	-0.01767028967476544	-0.1463395525098878	0.09818653815171063	-0.003908797745508924	0.1668288763416743	-9.796901161469693	-1.984415727983222	6.079049222703302	3.726843552437667	-624.5626967563177	-32.34815184985589	-41.02740142443911	0.271136493626108	0.2684065701983789	-0.03041180393640753	-0.888269182170068	0.2038255382967092	-0.172174716323396	1.193995739807434	-0.6284757650278952	-0.6284757650211625	0.01661956366493607	-0.04144308425574083	0.03226622288718924	0.1998434198400223	8.442944410329928e-10	-1.92505890356959e-07	5.701745873523774e-08	-1.728473921611355e-08	-3.269442090131721e-08	-6.188171060379839e-08	-2.347790962166436e-08
0.52	-0.2892891103199663	-0.003752802383649131	0.8473940050536983	0.7927387866478974	-0.2950303380277068	-0.1563523974794645	-0.2972399375074662	0.365143307541386	0.3651433075413956	-0.1744607495200527	0.1741897014058331	0.01374458507937328	-0.0352991127890171	-0.3210701507380092	-0.1450809263611132	-0.1623946829362364	1.057474650515341	-0.0639619579182498	0.295352037103351	-0.6228007827120289	0.8525154958028186	0.8525154958028464	-0.001290672039222346	0.002660208337807572	0.1507766955080098	-0.04141500582220826	-0.1644227751032095	0.06339380821333537	-0.01746056356468876	-0.1461958158141395	0.09654815937207524	-0.002935686636356391	0.1710840277954663	-10.37669566606158	-2.231695509577452	6.034147010792271	3.747108722633457	-626.2874243949768	-32.16653713480941	-40.89465170873208	0.2973863619886804	0.2828334709855549	-0.01110541736406507	-0.9759370093257153	0.2162346983033923	-0.1881739469565105	1.253927770982441	-0.6935600336342121	-0.6935600336342307	0.03589438770847313	-0.05290055166422409	0.03038918171213174	0.2133434230068943	3.573873661775784e-09	-1.865473621151971e-07	4.705854867825672e-08	-1.961011531912526e-08	-2.336108210118098e-08	-5.808704305439881e-08	-2.163073457145428e-08
0.53	-0.2924845118136902	-0.005189283963052773	0.8457697944852531	0.8032632400134954	-0.2956593458525452	-0.153409127556083	-0.303404555485074	0.3736327046906664	0.3736327046906763	-0.174472208601505	0.1742142014771343	0.01525360892111494	-0.03570282537302438	-0.3179675355001506	-0.1421970186331297	-0.162416918221381	1.047274652437175	-0.06184053021176154	0.2932561035923036	-0.6100499667615492	0.8452587899776446	0.8452587899776931	-0.001004027198041167	0.002249439763104016	0.1510117691913558	-0.03932941306095718	-0.1691509255148115	0.06465637194972572	-0.01729179406967533	-0.1462505325062206	0.09507677064640398	-0.002042627263063478	0.1750656737636586	-10.89951410455075	-2.454147559298909	5.985243853337673	3.793226615017464	-627.8746836766891	-31.9682733443272	-40.75346335458871	0.3230916327743025	0.2939208902824793	0.006790603873052699	-1.063236213282969	0.2099778463533489	-0.2272011153859734	1.296585414302609	-0.7574933362181538	-0.7574933362150297	0.02459017681631741	-0.03373626884726445	0.01762044957393771	0.2059055868378719	5.780920128582555e-09	-1.797097969386779e-07	3.820091017221582e-08	-2.145115413337279e-08	-1.527994578787861e-08	-5.434837279155147e-08	-1.990230715295794e-08
